# xmcd
#
# Track frame offsets:
#	150
#	14649
#	28137
#	43059
#	59983
#	75589
#	91392
#	104827
#	127580
#	142837
#	160674
#
# Disc length: 2385 seconds
#
# Revision: 0
# Processed by: cddbd v1.5.1PL2 Copyright (c) Steve Scherf et al.
# Submitted via: EasyCDDAExtractor 4.6.9.1
#
DISCID=91094f0b
DTITLE=Danielle Peck
DYEAR=2006
DGENRE=Country
TTITLE0=Finding A Good Man
TTITLE1=Isn't That Everything
TTITLE2=Kiss You On The Mouth
TTITLE3=Falling Apart
TTITLE4=I Don't
TTITLE5=Sucks To Be You
TTITLE6=Honky-Tonk Time
TTITLE7=Thisty Again
TTITLE8=Only The Lonely Talkin'
TTITLE9=A Woman Does Too
TTITLE10=Somebody For You
EXTD=
EXTT0=
EXTT1=
EXTT2=
EXTT3=
EXTT4=
EXTT5=
EXTT6=
EXTT7=
EXTT8=
EXTT9=
EXTT10=
PLAYORDER=
